<svg width="101" height="101" viewBox="0 0 101 101" fill="none" xmlns="http://www.w3.org/2000/svg">
<rect x="43.1557" y="61.6968" width="15.3316" height="38.5227" fill="#93642D"/>
<rect x="43.1966" y="47.4539" width="15.3316" height="38.5227" fill="#93642D"/>
<path d="M50.3754 40.6845L94.0017 80.9582H6.74902L50.3754 40.6845Z" fill="#66A865"/>
<path d="M50.4159 25.5089L87.4035 59.654H13.4284L50.4159 25.5089Z" fill="#83C082"/>
<path d="M64.6335 38.5122H36.2063L32.0122 42.2379H68.8277L64.6335 38.5122Z" fill="#83C082"/>
<path d="M70.9444 59.6245H29.8623L25.9539 63.1018H74.886L70.9444 59.6245Z" fill="#66A865"/>
<path d="M50.9026 11.5006L80.303 38.6416H21.5023L50.9026 11.5006Z" fill="#BCE8BB"/>
<path d="M50.9027 0L74.9639 22.2122H26.8414L50.9027 0Z" fill="#E0FFDF"/>
<path d="M62.3034 22.1191H39.4685L35.2743 25.8448H66.4976L62.3034 22.1191Z" fill="#BCE8BB"/>
</svg>
